<?xml version="1.0" encoding="UTF-8" standalone="no"?>
<!DOCTYPE svg PUBLIC "-//W3C//DTD SVG 1.1//EN" "http://www.w3.org/Graphics/SVG/1.1/DTD/svg11.dtd">
<svg width="100%" height="100%" viewBox="0 0 12756 12756" version="1.1" xmlns="http://www.w3.org/2000/svg" xmlns:xlink="http://www.w3.org/1999/xlink" xml:space="preserve" xmlns:serif="http://www.serif.com/" style="fill-rule:evenodd;clip-rule:evenodd;stroke-linejoin:round;stroke-miterlimit:2;">
    <g transform="matrix(86.328038,0,0,86.328038,-5672.060047,-29421.809731)">
        <rect x="192.637" y="417.106" width="4.809" height="4.825" style="fill:rgb(77,111,114);fill-rule:nonzero;"/>
        <rect x="192.637" y="412.282" width="4.809" height="4.824" style="fill:rgb(77,111,114);fill-rule:nonzero;"/>
        <rect x="192.637" y="407.458" width="4.809" height="4.824" style="fill:rgb(77,111,114);fill-rule:nonzero;"/>
        <rect x="192.637" y="402.648" width="4.809" height="4.81" style="fill:rgb(77,111,114);fill-rule:nonzero;"/>
        <rect x="192.637" y="397.824" width="4.809" height="4.824" style="fill:rgb(77,111,114);fill-rule:nonzero;"/>
        <rect x="187.813" y="426.756" width="4.824" height="4.824" style="fill:rgb(77,111,114);fill-rule:nonzero;"/>
        <rect x="187.813" y="421.931" width="4.824" height="4.825" style="fill:rgb(77,111,114);fill-rule:nonzero;"/>
        <rect x="187.813" y="417.106" width="4.824" height="4.825" style="fill:rgb(218,232,234);fill-rule:nonzero;"/>
        <rect x="187.813" y="412.282" width="4.824" height="4.824" style="fill:rgb(218,232,234);fill-rule:nonzero;"/>
        <rect x="187.813" y="407.458" width="4.824" height="4.824" style="fill:rgb(218,232,234);fill-rule:nonzero;"/>
        <rect x="187.813" y="402.648" width="4.824" height="4.81" style="fill:rgb(218,232,234);fill-rule:nonzero;"/>
        <rect x="187.813" y="397.824" width="4.824" height="4.824" style="fill:rgb(218,232,234);fill-rule:nonzero;"/>
        <rect x="187.813" y="393" width="4.824" height="4.824" style="fill:rgb(77,111,114);fill-rule:nonzero;"/>
        <rect x="187.813" y="388.176" width="4.824" height="4.824" style="fill:rgb(77,111,114);fill-rule:nonzero;"/>
        <rect x="187.813" y="383.352" width="4.824" height="4.824" style="fill:rgb(77,111,114);fill-rule:nonzero;"/>
        <rect x="182.988" y="436.389" width="4.825" height="4.825" style="fill:rgb(77,111,114);fill-rule:nonzero;"/>
        <rect x="182.988" y="431.58" width="4.825" height="4.809" style="fill:rgb(77,111,114);fill-rule:nonzero;"/>
        <rect x="182.988" y="426.756" width="4.825" height="4.824" style="fill:rgb(218,232,234);fill-rule:nonzero;"/>
        <rect x="182.988" y="421.931" width="4.825" height="4.825" style="fill:rgb(218,232,234);fill-rule:nonzero;"/>
        <rect x="182.988" y="417.106" width="4.825" height="4.825" style="fill:rgb(218,232,234);fill-rule:nonzero;"/>
        <rect x="182.988" y="412.282" width="4.825" height="4.824" style="fill:rgb(218,232,234);fill-rule:nonzero;"/>
        <rect x="182.988" y="407.458" width="4.825" height="4.824" style="fill:rgb(218,232,234);fill-rule:nonzero;"/>
        <rect x="182.988" y="402.648" width="4.825" height="4.81" style="fill:rgb(218,232,234);fill-rule:nonzero;"/>
        <rect x="182.988" y="397.824" width="4.825" height="4.824" style="fill:rgb(218,232,234);fill-rule:nonzero;"/>
        <rect x="182.988" y="393" width="4.825" height="4.824" style="fill:rgb(218,232,234);fill-rule:nonzero;"/>
        <rect x="182.988" y="388.176" width="4.825" height="4.824" style="fill:rgb(218,232,234);fill-rule:nonzero;"/>
        <rect x="182.988" y="383.352" width="4.825" height="4.824" style="fill:rgb(218,232,234);fill-rule:nonzero;"/>
        <rect x="182.988" y="378.527" width="4.825" height="4.825" style="fill:rgb(77,111,114);fill-rule:nonzero;"/>
        <rect x="182.988" y="373.718" width="4.825" height="4.809" style="fill:rgb(77,111,114);fill-rule:nonzero;"/>
        <rect x="178.164" y="441.214" width="4.824" height="4.824" style="fill:rgb(77,111,114);fill-rule:nonzero;"/>
        <rect x="178.164" y="436.389" width="4.824" height="4.825" style="fill:rgb(218,232,234);fill-rule:nonzero;"/>
        <rect x="178.164" y="431.58" width="4.824" height="4.809" style="fill:rgb(218,232,234);fill-rule:nonzero;"/>
        <rect x="178.164" y="426.756" width="4.824" height="4.824" style="fill:rgb(218,232,234);fill-rule:nonzero;"/>
        <rect x="178.164" y="421.931" width="4.824" height="4.825" style="fill:rgb(218,232,234);fill-rule:nonzero;"/>
        <rect x="178.164" y="417.106" width="4.824" height="4.825" style="fill:rgb(218,232,234);fill-rule:nonzero;"/>
        <rect x="178.164" y="412.282" width="4.824" height="4.824" style="fill:rgb(218,232,234);fill-rule:nonzero;"/>
        <rect x="178.164" y="407.458" width="4.824" height="4.824" style="fill:rgb(218,232,234);fill-rule:nonzero;"/>
        <rect x="178.164" y="402.648" width="4.824" height="4.81" style="fill:rgb(218,232,234);fill-rule:nonzero;"/>
        <rect x="178.164" y="397.824" width="4.824" height="4.824" style="fill:rgb(218,232,234);fill-rule:nonzero;"/>
        <rect x="178.164" y="393" width="4.824" height="4.824" style="fill:rgb(218,232,234);fill-rule:nonzero;"/>
        <rect x="178.164" y="388.176" width="4.824" height="4.824" style="fill:rgb(218,232,234);fill-rule:nonzero;"/>
        <rect x="178.164" y="383.352" width="4.824" height="4.824" style="fill:rgb(218,232,234);fill-rule:nonzero;"/>
        <rect x="178.164" y="378.527" width="4.824" height="4.825" style="fill:rgb(218,232,234);fill-rule:nonzero;"/>
        <rect x="178.164" y="373.718" width="4.824" height="4.809" style="fill:rgb(218,232,234);fill-rule:nonzero;"/>
        <rect x="178.164" y="368.894" width="4.824" height="4.824" style="fill:rgb(77,111,114);fill-rule:nonzero;"/>
        <rect x="173.339" y="446.038" width="4.825" height="4.824" style="fill:rgb(77,111,114);fill-rule:nonzero;"/>
        <rect x="173.339" y="441.214" width="4.825" height="4.824" style="fill:rgb(218,232,234);fill-rule:nonzero;"/>
        <rect x="173.339" y="436.389" width="4.825" height="4.825" style="fill:rgb(218,232,234);fill-rule:nonzero;"/>
        <rect x="173.339" y="431.58" width="4.825" height="4.809" style="fill:rgb(218,232,234);fill-rule:nonzero;"/>
        <rect x="173.339" y="426.756" width="4.825" height="4.824" style="fill:white;fill-rule:nonzero;"/>
        <rect x="173.339" y="421.931" width="4.825" height="4.825" style="fill:white;fill-rule:nonzero;"/>
        <rect x="173.339" y="417.106" width="4.825" height="4.825" style="fill:white;fill-rule:nonzero;"/>
        <rect x="173.339" y="412.282" width="4.825" height="4.824" style="fill:white;fill-rule:nonzero;"/>
        <rect x="173.339" y="407.458" width="4.825" height="4.824" style="fill:white;fill-rule:nonzero;"/>
        <rect x="173.339" y="402.648" width="4.825" height="4.81" style="fill:white;fill-rule:nonzero;"/>
        <rect x="173.339" y="397.824" width="4.825" height="4.824" style="fill:white;fill-rule:nonzero;"/>
        <rect x="173.339" y="393" width="4.825" height="4.824" style="fill:white;fill-rule:nonzero;"/>
        <rect x="173.339" y="388.176" width="4.825" height="4.824" style="fill:white;fill-rule:nonzero;"/>
        <rect x="173.339" y="383.352" width="4.825" height="4.824" style="fill:rgb(218,232,234);fill-rule:nonzero;"/>
        <rect x="173.339" y="378.527" width="4.825" height="4.825" style="fill:rgb(218,232,234);fill-rule:nonzero;"/>
        <rect x="173.339" y="373.718" width="4.825" height="4.809" style="fill:rgb(218,232,234);fill-rule:nonzero;"/>
        <rect x="173.339" y="368.894" width="4.825" height="4.824" style="fill:rgb(218,232,234);fill-rule:nonzero;"/>
        <rect x="173.339" y="364.069" width="4.825" height="4.825" style="fill:rgb(77,111,114);fill-rule:nonzero;"/>
        <rect x="168.515" y="446.038" width="4.824" height="4.824" style="fill:rgb(77,111,114);fill-rule:nonzero;"/>
        <rect x="168.515" y="441.214" width="4.824" height="4.824" style="fill:rgb(218,232,234);fill-rule:nonzero;"/>
        <rect x="168.515" y="436.389" width="4.824" height="4.825" style="fill:rgb(218,232,234);fill-rule:nonzero;"/>
        <rect x="168.515" y="431.58" width="4.824" height="4.809" style="fill:white;fill-rule:nonzero;"/>
        <rect x="168.515" y="426.756" width="4.824" height="4.824" style="fill:white;fill-rule:nonzero;"/>
        <rect x="168.515" y="421.931" width="4.824" height="4.825" style="fill:white;fill-rule:nonzero;"/>
        <rect x="168.515" y="417.106" width="4.824" height="4.825" style="fill:white;fill-rule:nonzero;"/>
        <rect x="168.515" y="412.282" width="4.824" height="4.824" style="fill:white;fill-rule:nonzero;"/>
        <rect x="168.515" y="407.458" width="4.824" height="4.824" style="fill:white;fill-rule:nonzero;"/>
        <rect x="168.515" y="402.648" width="4.824" height="4.81" style="fill:white;fill-rule:nonzero;"/>
        <rect x="168.515" y="397.824" width="4.824" height="4.824" style="fill:white;fill-rule:nonzero;"/>
        <rect x="168.515" y="393" width="4.824" height="4.824" style="fill:white;fill-rule:nonzero;"/>
        <rect x="168.515" y="388.176" width="4.824" height="4.824" style="fill:white;fill-rule:nonzero;"/>
        <rect x="168.515" y="383.352" width="4.824" height="4.824" style="fill:white;fill-rule:nonzero;"/>
        <rect x="168.515" y="378.527" width="4.824" height="4.825" style="fill:rgb(218,232,234);fill-rule:nonzero;"/>
        <rect x="168.515" y="373.718" width="4.824" height="4.809" style="fill:rgb(218,232,234);fill-rule:nonzero;"/>
        <rect x="168.515" y="368.894" width="4.824" height="4.824" style="fill:rgb(218,232,234);fill-rule:nonzero;"/>
        <rect x="168.515" y="364.069" width="4.824" height="4.825" style="fill:rgb(77,111,114);fill-rule:nonzero;"/>
        <rect x="163.706" y="446.038" width="4.809" height="4.824" style="fill:rgb(77,111,114);fill-rule:nonzero;"/>
        <rect x="163.706" y="441.214" width="4.809" height="4.824" style="fill:rgb(218,232,234);fill-rule:nonzero;"/>
        <rect x="163.706" y="436.389" width="4.809" height="4.825" style="fill:rgb(218,232,234);fill-rule:nonzero;"/>
        <rect x="163.706" y="431.58" width="4.809" height="4.809" style="fill:white;fill-rule:nonzero;"/>
        <rect x="163.706" y="426.756" width="4.809" height="4.824" style="fill:white;fill-rule:nonzero;"/>
        <rect x="163.706" y="421.931" width="4.809" height="4.825" style="fill:white;fill-rule:nonzero;"/>
        <rect x="163.706" y="417.106" width="4.809" height="4.825" style="fill:white;fill-rule:nonzero;"/>
        <rect x="163.706" y="412.282" width="4.809" height="4.824" style="fill:white;fill-rule:nonzero;"/>
        <rect x="163.706" y="407.458" width="4.809" height="4.824" style="fill:white;fill-rule:nonzero;"/>
        <rect x="163.706" y="402.648" width="4.809" height="4.81" style="fill:white;fill-rule:nonzero;"/>
        <rect x="163.706" y="397.824" width="4.809" height="4.824" style="fill:white;fill-rule:nonzero;"/>
        <rect x="163.706" y="393" width="4.809" height="4.824" style="fill:white;fill-rule:nonzero;"/>
        <rect x="163.706" y="388.176" width="4.809" height="4.824" style="fill:white;fill-rule:nonzero;"/>
        <rect x="163.706" y="383.352" width="4.809" height="4.824" style="fill:white;fill-rule:nonzero;"/>
        <rect x="163.706" y="378.527" width="4.809" height="4.825" style="fill:rgb(218,232,234);fill-rule:nonzero;"/>
        <rect x="163.706" y="373.718" width="4.809" height="4.809" style="fill:rgb(218,232,234);fill-rule:nonzero;"/>
        <rect x="163.706" y="368.894" width="4.809" height="4.824" style="fill:rgb(218,232,234);fill-rule:nonzero;"/>
        <rect x="163.706" y="364.069" width="4.809" height="4.825" style="fill:rgb(77,111,114);fill-rule:nonzero;"/>
        <rect x="158.882" y="450.862" width="4.824" height="4.825" style="fill:rgb(77,111,114);fill-rule:nonzero;"/>
        <rect x="158.882" y="446.038" width="4.824" height="4.824" style="fill:rgb(218,232,234);fill-rule:nonzero;"/>
        <rect x="158.882" y="441.214" width="4.824" height="4.824" style="fill:white;fill-rule:nonzero;"/>
        <rect x="158.882" y="436.389" width="4.824" height="4.825" style="fill:white;fill-rule:nonzero;"/>
        <rect x="158.882" y="431.58" width="4.824" height="4.809" style="fill:white;fill-rule:nonzero;"/>
        <rect x="158.882" y="426.756" width="4.824" height="4.824" style="fill:white;fill-rule:nonzero;"/>
        <rect x="158.882" y="421.931" width="4.824" height="4.825" style="fill:white;fill-rule:nonzero;"/>
        <rect x="158.882" y="417.106" width="4.824" height="4.825" style="fill:white;fill-rule:nonzero;"/>
        <rect x="158.882" y="412.282" width="4.824" height="4.824" style="fill:white;fill-rule:nonzero;"/>
        <rect x="158.882" y="407.458" width="4.824" height="4.824" style="fill:white;fill-rule:nonzero;"/>
        <rect x="158.882" y="402.648" width="4.824" height="4.81" style="fill:white;fill-rule:nonzero;"/>
        <rect x="158.882" y="397.824" width="4.824" height="4.824" style="fill:white;fill-rule:nonzero;"/>
        <rect x="158.882" y="393" width="4.824" height="4.824" style="fill:white;fill-rule:nonzero;"/>
        <rect x="158.882" y="388.176" width="4.824" height="4.824" style="fill:white;fill-rule:nonzero;"/>
        <rect x="158.882" y="383.352" width="4.824" height="4.824" style="fill:white;fill-rule:nonzero;"/>
        <rect x="158.882" y="378.527" width="4.824" height="4.825" style="fill:rgb(218,232,234);fill-rule:nonzero;"/>
        <rect x="158.882" y="373.718" width="4.824" height="4.809" style="fill:rgb(218,232,234);fill-rule:nonzero;"/>
        <rect x="158.882" y="368.894" width="4.824" height="4.824" style="fill:rgb(218,232,234);fill-rule:nonzero;"/>
        <rect x="158.882" y="364.069" width="4.824" height="4.825" style="fill:rgb(77,111,114);fill-rule:nonzero;"/>
        <rect x="154.057" y="455.687" width="4.825" height="4.824" style="fill:rgb(77,111,114);fill-rule:nonzero;"/>
        <rect x="154.057" y="450.862" width="4.825" height="4.825" style="fill:rgb(218,232,234);fill-rule:nonzero;"/>
        <rect x="154.057" y="446.038" width="4.825" height="4.824" style="fill:rgb(218,232,234);fill-rule:nonzero;"/>
        <rect x="154.057" y="441.214" width="4.825" height="4.824" style="fill:white;fill-rule:nonzero;"/>
        <rect x="154.057" y="436.389" width="4.825" height="4.825" style="fill:white;fill-rule:nonzero;"/>
        <rect x="154.057" y="431.58" width="4.825" height="4.809" style="fill:white;fill-rule:nonzero;"/>
        <rect x="154.057" y="426.756" width="4.825" height="4.824" style="fill:white;fill-rule:nonzero;"/>
        <rect x="154.057" y="421.931" width="4.825" height="4.825" style="fill:white;fill-rule:nonzero;"/>
        <rect x="154.057" y="417.106" width="4.825" height="4.825" style="fill:white;fill-rule:nonzero;"/>
        <rect x="154.057" y="412.282" width="4.825" height="4.824" style="fill:white;fill-rule:nonzero;"/>
        <rect x="154.057" y="407.458" width="4.825" height="4.824" style="fill:rgb(77,111,114);fill-rule:nonzero;"/>
        <rect x="154.057" y="402.648" width="4.825" height="4.81" style="fill:rgb(77,111,114);fill-rule:nonzero;"/>
        <rect x="154.057" y="397.824" width="4.825" height="4.824" style="fill:white;fill-rule:nonzero;"/>
        <rect x="154.057" y="393" width="4.825" height="4.824" style="fill:white;fill-rule:nonzero;"/>
        <rect x="154.057" y="388.176" width="4.825" height="4.824" style="fill:white;fill-rule:nonzero;"/>
        <rect x="154.057" y="383.352" width="4.825" height="4.824" style="fill:white;fill-rule:nonzero;"/>
        <rect x="154.057" y="378.527" width="4.825" height="4.825" style="fill:rgb(218,232,234);fill-rule:nonzero;"/>
        <rect x="154.057" y="373.718" width="4.825" height="4.809" style="fill:rgb(218,232,234);fill-rule:nonzero;"/>
        <rect x="154.057" y="368.894" width="4.825" height="4.824" style="fill:rgb(218,232,234);fill-rule:nonzero;"/>
        <rect x="154.057" y="364.069" width="4.825" height="4.825" style="fill:rgb(77,111,114);fill-rule:nonzero;"/>
        <rect x="149.233" y="460.511" width="4.824" height="4.809" style="fill:rgb(77,111,114);fill-rule:nonzero;"/>
        <rect x="149.233" y="455.687" width="4.824" height="4.824" style="fill:rgb(218,232,234);fill-rule:nonzero;"/>
        <rect x="149.233" y="450.862" width="4.824" height="4.825" style="fill:rgb(218,232,234);fill-rule:nonzero;"/>
        <rect x="149.233" y="446.038" width="4.824" height="4.824" style="fill:white;fill-rule:nonzero;"/>
        <rect x="149.233" y="441.214" width="4.824" height="4.824" style="fill:white;fill-rule:nonzero;"/>
        <rect x="149.233" y="436.389" width="4.824" height="4.825" style="fill:white;fill-rule:nonzero;"/>
        <rect x="149.233" y="431.58" width="4.824" height="4.809" style="fill:white;fill-rule:nonzero;"/>
        <rect x="149.233" y="426.756" width="4.824" height="4.824" style="fill:white;fill-rule:nonzero;"/>
        <rect x="149.233" y="421.931" width="4.824" height="4.825" style="fill:white;fill-rule:nonzero;"/>
        <rect x="149.233" y="417.106" width="4.824" height="4.825" style="fill:white;fill-rule:nonzero;"/>
        <rect x="149.233" y="412.282" width="4.824" height="4.824" style="fill:white;fill-rule:nonzero;"/>
        <rect x="149.233" y="407.458" width="4.824" height="4.824" style="fill:rgb(77,111,114);fill-rule:nonzero;"/>
        <rect x="149.233" y="402.648" width="4.824" height="4.81" style="fill:rgb(77,111,114);fill-rule:nonzero;"/>
        <rect x="149.233" y="397.824" width="4.824" height="4.824" style="fill:white;fill-rule:nonzero;"/>
        <rect x="149.233" y="393" width="4.824" height="4.824" style="fill:white;fill-rule:nonzero;"/>
        <rect x="149.233" y="388.176" width="4.824" height="4.824" style="fill:white;fill-rule:nonzero;"/>
        <rect x="149.233" y="383.352" width="4.824" height="4.824" style="fill:white;fill-rule:nonzero;"/>
        <rect x="149.233" y="378.527" width="4.824" height="4.825" style="fill:rgb(218,232,234);fill-rule:nonzero;"/>
        <rect x="149.233" y="373.718" width="4.824" height="4.809" style="fill:rgb(218,232,234);fill-rule:nonzero;"/>
        <rect x="149.233" y="368.894" width="4.824" height="4.824" style="fill:rgb(218,232,234);fill-rule:nonzero;"/>
        <rect x="149.233" y="364.069" width="4.824" height="4.825" style="fill:rgb(77,111,114);fill-rule:nonzero;"/>
        <rect x="144.409" y="455.687" width="4.824" height="4.824" style="fill:rgb(77,111,114);fill-rule:nonzero;"/>
        <rect x="144.409" y="450.862" width="4.824" height="4.825" style="fill:rgb(77,111,114);fill-rule:nonzero;"/>
        <rect x="144.409" y="446.038" width="4.824" height="4.824" style="fill:rgb(77,111,114);fill-rule:nonzero;"/>
        <rect x="144.409" y="441.214" width="4.824" height="4.824" style="fill:white;fill-rule:nonzero;"/>
        <rect x="144.409" y="436.389" width="4.824" height="4.825" style="fill:white;fill-rule:nonzero;"/>
        <rect x="144.409" y="431.58" width="4.824" height="4.809" style="fill:white;fill-rule:nonzero;"/>
        <rect x="144.409" y="426.756" width="4.824" height="4.824" style="fill:white;fill-rule:nonzero;"/>
        <rect x="144.409" y="421.931" width="4.824" height="4.825" style="fill:white;fill-rule:nonzero;"/>
        <rect x="144.409" y="417.106" width="4.824" height="4.825" style="fill:white;fill-rule:nonzero;"/>
        <rect x="144.409" y="412.282" width="4.824" height="4.824" style="fill:white;fill-rule:nonzero;"/>
        <rect x="144.409" y="407.458" width="4.824" height="4.824" style="fill:white;fill-rule:nonzero;"/>
        <rect x="144.409" y="402.648" width="4.824" height="4.81" style="fill:white;fill-rule:nonzero;"/>
        <rect x="144.409" y="397.824" width="4.824" height="4.824" style="fill:white;fill-rule:nonzero;"/>
        <rect x="144.409" y="393" width="4.824" height="4.824" style="fill:white;fill-rule:nonzero;"/>
        <rect x="144.409" y="388.176" width="4.824" height="4.824" style="fill:white;fill-rule:nonzero;"/>
        <rect x="144.409" y="383.352" width="4.824" height="4.824" style="fill:white;fill-rule:nonzero;"/>
        <rect x="144.409" y="378.527" width="4.824" height="4.825" style="fill:rgb(218,232,234);fill-rule:nonzero;"/>
        <rect x="144.409" y="373.718" width="4.824" height="4.809" style="fill:rgb(218,232,234);fill-rule:nonzero;"/>
        <rect x="144.409" y="368.894" width="4.824" height="4.824" style="fill:rgb(218,232,234);fill-rule:nonzero;"/>
        <rect x="144.409" y="364.069" width="4.824" height="4.825" style="fill:rgb(77,111,114);fill-rule:nonzero;"/>
        <rect x="139.584" y="446.038" width="4.825" height="4.824" style="fill:rgb(77,111,114);fill-rule:nonzero;"/>
        <rect x="139.584" y="441.214" width="4.825" height="4.824" style="fill:white;fill-rule:nonzero;"/>
        <rect x="139.584" y="436.389" width="4.825" height="4.825" style="fill:white;fill-rule:nonzero;"/>
        <rect x="139.584" y="431.58" width="4.825" height="4.809" style="fill:white;fill-rule:nonzero;"/>
        <rect x="139.584" y="426.756" width="4.825" height="4.824" style="fill:white;fill-rule:nonzero;"/>
        <rect x="139.584" y="421.931" width="4.825" height="4.825" style="fill:white;fill-rule:nonzero;"/>
        <rect x="139.584" y="417.106" width="4.825" height="4.825" style="fill:white;fill-rule:nonzero;"/>
        <rect x="139.584" y="412.282" width="4.825" height="4.824" style="fill:white;fill-rule:nonzero;"/>
        <rect x="139.584" y="407.458" width="4.825" height="4.824" style="fill:white;fill-rule:nonzero;"/>
        <rect x="139.584" y="402.648" width="4.825" height="4.81" style="fill:white;fill-rule:nonzero;"/>
        <rect x="139.584" y="397.824" width="4.825" height="4.824" style="fill:white;fill-rule:nonzero;"/>
        <rect x="139.584" y="393" width="4.825" height="4.824" style="fill:white;fill-rule:nonzero;"/>
        <rect x="139.584" y="388.176" width="4.825" height="4.824" style="fill:white;fill-rule:nonzero;"/>
        <rect x="139.584" y="383.352" width="4.825" height="4.824" style="fill:white;fill-rule:nonzero;"/>
        <rect x="139.584" y="378.527" width="4.825" height="4.825" style="fill:rgb(218,232,234);fill-rule:nonzero;"/>
        <rect x="139.584" y="373.718" width="4.825" height="4.809" style="fill:rgb(218,232,234);fill-rule:nonzero;"/>
        <rect x="139.584" y="368.894" width="4.825" height="4.824" style="fill:rgb(218,232,234);fill-rule:nonzero;"/>
        <rect x="139.584" y="364.069" width="4.825" height="4.825" style="fill:rgb(77,111,114);fill-rule:nonzero;"/>
        <rect x="134.775" y="446.038" width="4.809" height="4.824" style="fill:rgb(77,111,114);fill-rule:nonzero;"/>
        <rect x="134.775" y="441.214" width="4.809" height="4.824" style="fill:white;fill-rule:nonzero;"/>
        <rect x="134.775" y="436.389" width="4.809" height="4.825" style="fill:white;fill-rule:nonzero;"/>
        <rect x="134.775" y="431.58" width="4.809" height="4.809" style="fill:white;fill-rule:nonzero;"/>
        <rect x="134.775" y="426.756" width="4.809" height="4.824" style="fill:white;fill-rule:nonzero;"/>
        <rect x="134.775" y="421.931" width="4.809" height="4.825" style="fill:white;fill-rule:nonzero;"/>
        <rect x="134.775" y="417.106" width="4.809" height="4.825" style="fill:white;fill-rule:nonzero;"/>
        <rect x="134.775" y="412.282" width="4.809" height="4.824" style="fill:white;fill-rule:nonzero;"/>
        <rect x="134.775" y="407.458" width="4.809" height="4.824" style="fill:rgb(77,111,114);fill-rule:nonzero;"/>
        <rect x="134.775" y="402.648" width="4.809" height="4.81" style="fill:rgb(77,111,114);fill-rule:nonzero;"/>
        <rect x="134.775" y="397.824" width="4.809" height="4.824" style="fill:white;fill-rule:nonzero;"/>
        <rect x="134.775" y="393" width="4.809" height="4.824" style="fill:white;fill-rule:nonzero;"/>
        <rect x="134.775" y="388.176" width="4.809" height="4.824" style="fill:white;fill-rule:nonzero;"/>
        <rect x="134.775" y="383.352" width="4.809" height="4.824" style="fill:white;fill-rule:nonzero;"/>
        <rect x="134.775" y="378.527" width="4.809" height="4.825" style="fill:rgb(218,232,234);fill-rule:nonzero;"/>
        <rect x="134.775" y="373.718" width="4.809" height="4.809" style="fill:rgb(218,232,234);fill-rule:nonzero;"/>
        <rect x="134.775" y="368.894" width="4.809" height="4.824" style="fill:rgb(218,232,234);fill-rule:nonzero;"/>
        <rect x="134.775" y="364.069" width="4.809" height="4.825" style="fill:rgb(77,111,114);fill-rule:nonzero;"/>
        <rect x="129.951" y="446.038" width="4.824" height="4.824" style="fill:rgb(77,111,114);fill-rule:nonzero;"/>
        <rect x="129.951" y="441.214" width="4.824" height="4.824" style="fill:white;fill-rule:nonzero;"/>
        <rect x="129.951" y="436.389" width="4.824" height="4.825" style="fill:white;fill-rule:nonzero;"/>
        <rect x="129.951" y="431.58" width="4.824" height="4.809" style="fill:white;fill-rule:nonzero;"/>
        <rect x="129.951" y="426.756" width="4.824" height="4.824" style="fill:white;fill-rule:nonzero;"/>
        <rect x="129.951" y="421.931" width="4.824" height="4.825" style="fill:white;fill-rule:nonzero;"/>
        <rect x="129.951" y="417.106" width="4.824" height="4.825" style="fill:white;fill-rule:nonzero;"/>
        <rect x="129.951" y="412.282" width="4.824" height="4.824" style="fill:white;fill-rule:nonzero;"/>
        <rect x="129.951" y="407.458" width="4.824" height="4.824" style="fill:rgb(77,111,114);fill-rule:nonzero;"/>
        <rect x="129.951" y="402.648" width="4.824" height="4.81" style="fill:rgb(77,111,114);fill-rule:nonzero;"/>
        <rect x="129.951" y="397.824" width="4.824" height="4.824" style="fill:white;fill-rule:nonzero;"/>
        <rect x="129.951" y="393" width="4.824" height="4.824" style="fill:white;fill-rule:nonzero;"/>
        <rect x="129.951" y="388.176" width="4.824" height="4.824" style="fill:white;fill-rule:nonzero;"/>
        <rect x="129.951" y="383.352" width="4.824" height="4.824" style="fill:white;fill-rule:nonzero;"/>
        <rect x="129.951" y="378.527" width="4.824" height="4.825" style="fill:rgb(218,232,234);fill-rule:nonzero;"/>
        <rect x="129.951" y="373.718" width="4.824" height="4.809" style="fill:rgb(218,232,234);fill-rule:nonzero;"/>
        <rect x="129.951" y="368.894" width="4.824" height="4.824" style="fill:rgb(218,232,234);fill-rule:nonzero;"/>
        <rect x="129.951" y="364.069" width="4.824" height="4.825" style="fill:rgb(77,111,114);fill-rule:nonzero;"/>
        <rect x="125.126" y="446.038" width="4.825" height="4.824" style="fill:rgb(77,111,114);fill-rule:nonzero;"/>
        <rect x="125.126" y="441.214" width="4.825" height="4.824" style="fill:white;fill-rule:nonzero;"/>
        <rect x="125.126" y="436.389" width="4.825" height="4.825" style="fill:white;fill-rule:nonzero;"/>
        <rect x="125.126" y="431.58" width="4.825" height="4.809" style="fill:white;fill-rule:nonzero;"/>
        <rect x="125.126" y="426.756" width="4.825" height="4.824" style="fill:white;fill-rule:nonzero;"/>
        <rect x="125.126" y="421.931" width="4.825" height="4.825" style="fill:white;fill-rule:nonzero;"/>
        <rect x="125.126" y="417.106" width="4.825" height="4.825" style="fill:white;fill-rule:nonzero;"/>
        <rect x="125.126" y="412.282" width="4.825" height="4.824" style="fill:white;fill-rule:nonzero;"/>
        <rect x="125.126" y="407.458" width="4.825" height="4.824" style="fill:white;fill-rule:nonzero;"/>
        <rect x="125.126" y="402.648" width="4.825" height="4.81" style="fill:white;fill-rule:nonzero;"/>
        <rect x="125.126" y="397.824" width="4.825" height="4.824" style="fill:white;fill-rule:nonzero;"/>
        <rect x="125.126" y="393" width="4.825" height="4.824" style="fill:white;fill-rule:nonzero;"/>
        <rect x="125.126" y="388.176" width="4.825" height="4.824" style="fill:white;fill-rule:nonzero;"/>
        <rect x="125.126" y="383.352" width="4.825" height="4.824" style="fill:white;fill-rule:nonzero;"/>
        <rect x="125.126" y="378.527" width="4.825" height="4.825" style="fill:rgb(218,232,234);fill-rule:nonzero;"/>
        <rect x="125.126" y="373.718" width="4.825" height="4.809" style="fill:rgb(218,232,234);fill-rule:nonzero;"/>
        <rect x="125.126" y="368.894" width="4.825" height="4.824" style="fill:rgb(218,232,234);fill-rule:nonzero;"/>
        <rect x="125.126" y="364.069" width="4.825" height="4.825" style="fill:rgb(77,111,114);fill-rule:nonzero;"/>
        <rect x="120.302" y="446.038" width="4.824" height="4.824" style="fill:rgb(77,111,114);fill-rule:nonzero;"/>
        <rect x="120.302" y="441.214" width="4.824" height="4.824" style="fill:white;fill-rule:nonzero;"/>
        <rect x="120.302" y="436.389" width="4.824" height="4.825" style="fill:white;fill-rule:nonzero;"/>
        <rect x="120.302" y="431.58" width="4.824" height="4.809" style="fill:white;fill-rule:nonzero;"/>
        <rect x="120.302" y="426.756" width="4.824" height="4.824" style="fill:white;fill-rule:nonzero;"/>
        <rect x="120.302" y="421.931" width="4.824" height="4.825" style="fill:white;fill-rule:nonzero;"/>
        <rect x="120.302" y="417.106" width="4.824" height="4.825" style="fill:white;fill-rule:nonzero;"/>
        <rect x="120.302" y="412.282" width="4.824" height="4.824" style="fill:white;fill-rule:nonzero;"/>
        <rect x="120.302" y="407.458" width="4.824" height="4.824" style="fill:white;fill-rule:nonzero;"/>
        <rect x="120.302" y="402.648" width="4.824" height="4.81" style="fill:white;fill-rule:nonzero;"/>
        <rect x="120.302" y="397.824" width="4.824" height="4.824" style="fill:white;fill-rule:nonzero;"/>
        <rect x="120.302" y="393" width="4.824" height="4.824" style="fill:white;fill-rule:nonzero;"/>
        <rect x="120.302" y="388.176" width="4.824" height="4.824" style="fill:white;fill-rule:nonzero;"/>
        <rect x="120.302" y="383.352" width="4.824" height="4.824" style="fill:white;fill-rule:nonzero;"/>
        <rect x="120.302" y="378.527" width="4.824" height="4.825" style="fill:rgb(218,232,234);fill-rule:nonzero;"/>
        <rect x="120.302" y="373.718" width="4.824" height="4.809" style="fill:rgb(218,232,234);fill-rule:nonzero;"/>
        <rect x="120.302" y="368.894" width="4.824" height="4.824" style="fill:rgb(218,232,234);fill-rule:nonzero;"/>
        <rect x="120.302" y="364.069" width="4.824" height="4.825" style="fill:rgb(77,111,114);fill-rule:nonzero;"/>
        <rect x="115.478" y="446.038" width="4.824" height="4.824" style="fill:rgb(77,111,114);fill-rule:nonzero;"/>
        <rect x="115.478" y="441.214" width="4.824" height="4.824" style="fill:white;fill-rule:nonzero;"/>
        <rect x="115.478" y="436.389" width="4.824" height="4.825" style="fill:white;fill-rule:nonzero;"/>
        <rect x="115.478" y="431.58" width="4.824" height="4.809" style="fill:white;fill-rule:nonzero;"/>
        <rect x="115.478" y="426.756" width="4.824" height="4.824" style="fill:white;fill-rule:nonzero;"/>
        <rect x="115.478" y="421.931" width="4.824" height="4.825" style="fill:white;fill-rule:nonzero;"/>
        <rect x="115.478" y="417.106" width="4.824" height="4.825" style="fill:white;fill-rule:nonzero;"/>
        <rect x="115.478" y="412.282" width="4.824" height="4.824" style="fill:white;fill-rule:nonzero;"/>
        <rect x="115.478" y="407.458" width="4.824" height="4.824" style="fill:rgb(77,111,114);fill-rule:nonzero;"/>
        <rect x="115.478" y="402.648" width="4.824" height="4.81" style="fill:rgb(77,111,114);fill-rule:nonzero;"/>
        <rect x="115.478" y="397.824" width="4.824" height="4.824" style="fill:white;fill-rule:nonzero;"/>
        <rect x="115.478" y="393" width="4.824" height="4.824" style="fill:white;fill-rule:nonzero;"/>
        <rect x="115.478" y="388.176" width="4.824" height="4.824" style="fill:white;fill-rule:nonzero;"/>
        <rect x="115.478" y="383.352" width="4.824" height="4.824" style="fill:white;fill-rule:nonzero;"/>
        <rect x="115.478" y="378.527" width="4.824" height="4.825" style="fill:rgb(218,232,234);fill-rule:nonzero;"/>
        <rect x="115.478" y="373.718" width="4.824" height="4.809" style="fill:rgb(218,232,234);fill-rule:nonzero;"/>
        <rect x="115.478" y="368.894" width="4.824" height="4.824" style="fill:rgb(218,232,234);fill-rule:nonzero;"/>
        <rect x="115.478" y="364.069" width="4.824" height="4.825" style="fill:rgb(77,111,114);fill-rule:nonzero;"/>
        <rect x="110.653" y="446.038" width="4.825" height="4.824" style="fill:rgb(77,111,114);fill-rule:nonzero;"/>
        <rect x="110.653" y="441.214" width="4.825" height="4.824" style="fill:white;fill-rule:nonzero;"/>
        <rect x="110.653" y="436.389" width="4.825" height="4.825" style="fill:white;fill-rule:nonzero;"/>
        <rect x="110.653" y="431.58" width="4.825" height="4.809" style="fill:white;fill-rule:nonzero;"/>
        <rect x="110.653" y="426.756" width="4.825" height="4.824" style="fill:white;fill-rule:nonzero;"/>
        <rect x="110.653" y="421.931" width="4.825" height="4.825" style="fill:white;fill-rule:nonzero;"/>
        <rect x="110.653" y="417.106" width="4.825" height="4.825" style="fill:white;fill-rule:nonzero;"/>
        <rect x="110.653" y="412.282" width="4.825" height="4.824" style="fill:white;fill-rule:nonzero;"/>
        <rect x="110.653" y="407.458" width="4.825" height="4.824" style="fill:rgb(77,111,114);fill-rule:nonzero;"/>
        <rect x="110.653" y="402.648" width="4.825" height="4.81" style="fill:rgb(77,111,114);fill-rule:nonzero;"/>
        <rect x="110.653" y="397.824" width="4.825" height="4.824" style="fill:white;fill-rule:nonzero;"/>
        <rect x="110.653" y="393" width="4.825" height="4.824" style="fill:white;fill-rule:nonzero;"/>
        <rect x="110.653" y="388.176" width="4.825" height="4.824" style="fill:white;fill-rule:nonzero;"/>
        <rect x="110.653" y="383.352" width="4.825" height="4.824" style="fill:white;fill-rule:nonzero;"/>
        <rect x="110.653" y="378.527" width="4.825" height="4.825" style="fill:rgb(218,232,234);fill-rule:nonzero;"/>
        <rect x="110.653" y="373.718" width="4.825" height="4.809" style="fill:rgb(218,232,234);fill-rule:nonzero;"/>
        <rect x="110.653" y="368.894" width="4.825" height="4.824" style="fill:rgb(218,232,234);fill-rule:nonzero;"/>
        <rect x="110.653" y="364.069" width="4.825" height="4.825" style="fill:rgb(77,111,114);fill-rule:nonzero;"/>
        <rect x="105.844" y="446.038" width="4.809" height="4.824" style="fill:rgb(77,111,114);fill-rule:nonzero;"/>
        <rect x="105.844" y="441.214" width="4.809" height="4.824" style="fill:white;fill-rule:nonzero;"/>
        <rect x="105.844" y="436.389" width="4.809" height="4.825" style="fill:white;fill-rule:nonzero;"/>
        <rect x="105.844" y="431.58" width="4.809" height="4.809" style="fill:white;fill-rule:nonzero;"/>
        <rect x="105.844" y="426.756" width="4.809" height="4.824" style="fill:white;fill-rule:nonzero;"/>
        <rect x="105.844" y="421.931" width="4.809" height="4.825" style="fill:white;fill-rule:nonzero;"/>
        <rect x="105.844" y="417.106" width="4.809" height="4.825" style="fill:white;fill-rule:nonzero;"/>
        <rect x="105.844" y="412.282" width="4.809" height="4.824" style="fill:white;fill-rule:nonzero;"/>
        <rect x="105.844" y="407.458" width="4.809" height="4.824" style="fill:white;fill-rule:nonzero;"/>
        <rect x="105.844" y="402.648" width="4.809" height="4.81" style="fill:white;fill-rule:nonzero;"/>
        <rect x="105.844" y="397.824" width="4.809" height="4.824" style="fill:white;fill-rule:nonzero;"/>
        <rect x="105.844" y="393" width="4.809" height="4.824" style="fill:white;fill-rule:nonzero;"/>
        <rect x="105.844" y="388.176" width="4.809" height="4.824" style="fill:white;fill-rule:nonzero;"/>
        <rect x="105.844" y="383.352" width="4.809" height="4.824" style="fill:white;fill-rule:nonzero;"/>
        <rect x="105.844" y="378.527" width="4.809" height="4.825" style="fill:rgb(218,232,234);fill-rule:nonzero;"/>
        <rect x="105.844" y="373.718" width="4.809" height="4.809" style="fill:rgb(218,232,234);fill-rule:nonzero;"/>
        <rect x="105.844" y="368.894" width="4.809" height="4.824" style="fill:rgb(218,232,234);fill-rule:nonzero;"/>
        <rect x="105.844" y="364.069" width="4.809" height="4.825" style="fill:rgb(77,111,114);fill-rule:nonzero;"/>
        <rect x="101.02" y="446.038" width="4.824" height="4.824" style="fill:rgb(77,111,114);fill-rule:nonzero;"/>
        <rect x="101.02" y="441.214" width="4.824" height="4.824" style="fill:white;fill-rule:nonzero;"/>
        <rect x="101.02" y="436.389" width="4.824" height="4.825" style="fill:white;fill-rule:nonzero;"/>
        <rect x="101.02" y="431.58" width="4.824" height="4.809" style="fill:white;fill-rule:nonzero;"/>
        <rect x="101.02" y="426.756" width="4.824" height="4.824" style="fill:white;fill-rule:nonzero;"/>
        <rect x="101.02" y="421.931" width="4.824" height="4.825" style="fill:white;fill-rule:nonzero;"/>
        <rect x="101.02" y="417.106" width="4.824" height="4.825" style="fill:white;fill-rule:nonzero;"/>
        <rect x="101.02" y="412.282" width="4.824" height="4.824" style="fill:white;fill-rule:nonzero;"/>
        <rect x="101.02" y="407.458" width="4.824" height="4.824" style="fill:white;fill-rule:nonzero;"/>
        <rect x="101.02" y="402.648" width="4.824" height="4.81" style="fill:white;fill-rule:nonzero;"/>
        <rect x="101.02" y="397.824" width="4.824" height="4.824" style="fill:white;fill-rule:nonzero;"/>
        <rect x="101.02" y="393" width="4.824" height="4.824" style="fill:white;fill-rule:nonzero;"/>
        <rect x="101.02" y="388.176" width="4.824" height="4.824" style="fill:white;fill-rule:nonzero;"/>
        <rect x="101.02" y="383.352" width="4.824" height="4.824" style="fill:white;fill-rule:nonzero;"/>
        <rect x="101.02" y="378.527" width="4.824" height="4.825" style="fill:rgb(218,232,234);fill-rule:nonzero;"/>
        <rect x="101.02" y="373.718" width="4.824" height="4.809" style="fill:rgb(218,232,234);fill-rule:nonzero;"/>
        <rect x="101.02" y="368.894" width="4.824" height="4.824" style="fill:rgb(218,232,234);fill-rule:nonzero;"/>
        <rect x="101.02" y="364.069" width="4.824" height="4.825" style="fill:rgb(77,111,114);fill-rule:nonzero;"/>
        <rect x="96.195" y="441.214" width="4.825" height="4.824" style="fill:rgb(77,111,114);fill-rule:nonzero;"/>
        <rect x="96.195" y="436.389" width="4.825" height="4.825" style="fill:white;fill-rule:nonzero;"/>
        <rect x="96.195" y="431.58" width="4.825" height="4.809" style="fill:white;fill-rule:nonzero;"/>
        <rect x="96.195" y="426.756" width="4.825" height="4.824" style="fill:white;fill-rule:nonzero;"/>
        <rect x="96.195" y="421.931" width="4.825" height="4.825" style="fill:white;fill-rule:nonzero;"/>
        <rect x="96.195" y="417.106" width="4.825" height="4.825" style="fill:white;fill-rule:nonzero;"/>
        <rect x="96.195" y="412.282" width="4.825" height="4.824" style="fill:white;fill-rule:nonzero;"/>
        <rect x="96.195" y="407.458" width="4.825" height="4.824" style="fill:white;fill-rule:nonzero;"/>
        <rect x="96.195" y="402.648" width="4.825" height="4.81" style="fill:white;fill-rule:nonzero;"/>
        <rect x="96.195" y="397.824" width="4.825" height="4.824" style="fill:white;fill-rule:nonzero;"/>
        <rect x="96.195" y="393" width="4.825" height="4.824" style="fill:white;fill-rule:nonzero;"/>
        <rect x="96.195" y="388.176" width="4.825" height="4.824" style="fill:white;fill-rule:nonzero;"/>
        <rect x="96.195" y="383.352" width="4.825" height="4.824" style="fill:white;fill-rule:nonzero;"/>
        <rect x="96.195" y="378.527" width="4.825" height="4.825" style="fill:rgb(218,232,234);fill-rule:nonzero;"/>
        <rect x="96.195" y="373.718" width="4.825" height="4.809" style="fill:rgb(218,232,234);fill-rule:nonzero;"/>
        <rect x="96.195" y="368.894" width="4.825" height="4.824" style="fill:rgb(77,111,114);fill-rule:nonzero;"/>
        <rect x="91.371" y="436.389" width="4.824" height="4.825" style="fill:rgb(77,111,114);fill-rule:nonzero;"/>
        <rect x="91.371" y="431.58" width="4.824" height="4.809" style="fill:rgb(77,111,114);fill-rule:nonzero;"/>
        <rect x="91.371" y="426.756" width="4.824" height="4.824" style="fill:white;fill-rule:nonzero;"/>
        <rect x="91.371" y="421.931" width="4.824" height="4.825" style="fill:white;fill-rule:nonzero;"/>
        <rect x="91.371" y="417.106" width="4.824" height="4.825" style="fill:white;fill-rule:nonzero;"/>
        <rect x="91.371" y="412.282" width="4.824" height="4.824" style="fill:white;fill-rule:nonzero;"/>
        <rect x="91.371" y="407.458" width="4.824" height="4.824" style="fill:white;fill-rule:nonzero;"/>
        <rect x="91.371" y="402.648" width="4.824" height="4.81" style="fill:white;fill-rule:nonzero;"/>
        <rect x="91.371" y="397.824" width="4.824" height="4.824" style="fill:white;fill-rule:nonzero;"/>
        <rect x="91.371" y="393" width="4.824" height="4.824" style="fill:white;fill-rule:nonzero;"/>
        <rect x="91.371" y="388.176" width="4.824" height="4.824" style="fill:white;fill-rule:nonzero;"/>
        <rect x="91.371" y="383.352" width="4.824" height="4.824" style="fill:white;fill-rule:nonzero;"/>
        <rect x="91.371" y="378.527" width="4.824" height="4.825" style="fill:rgb(77,111,114);fill-rule:nonzero;"/>
        <rect x="91.371" y="373.718" width="4.824" height="4.809" style="fill:rgb(77,111,114);fill-rule:nonzero;"/>
        <rect x="86.546" y="426.756" width="4.825" height="4.824" style="fill:rgb(77,111,114);fill-rule:nonzero;"/>
        <rect x="86.546" y="421.931" width="4.825" height="4.825" style="fill:rgb(77,111,114);fill-rule:nonzero;"/>
        <rect x="86.546" y="417.106" width="4.825" height="4.825" style="fill:white;fill-rule:nonzero;"/>
        <rect x="86.546" y="412.282" width="4.825" height="4.824" style="fill:white;fill-rule:nonzero;"/>
        <rect x="86.546" y="407.458" width="4.825" height="4.824" style="fill:white;fill-rule:nonzero;"/>
        <rect x="86.546" y="402.648" width="4.825" height="4.81" style="fill:white;fill-rule:nonzero;"/>
        <rect x="86.546" y="397.824" width="4.825" height="4.824" style="fill:white;fill-rule:nonzero;"/>
        <rect x="86.546" y="393" width="4.825" height="4.824" style="fill:rgb(77,111,114);fill-rule:nonzero;"/>
        <rect x="86.546" y="388.176" width="4.825" height="4.824" style="fill:rgb(77,111,114);fill-rule:nonzero;"/>
        <rect x="86.546" y="383.352" width="4.825" height="4.824" style="fill:rgb(77,111,114);fill-rule:nonzero;"/>
        <rect x="81.722" y="417.106" width="4.824" height="4.825" style="fill:rgb(77,111,114);fill-rule:nonzero;"/>
        <rect x="81.722" y="412.282" width="4.824" height="4.824" style="fill:rgb(77,111,114);fill-rule:nonzero;"/>
        <rect x="81.722" y="407.458" width="4.824" height="4.824" style="fill:rgb(77,111,114);fill-rule:nonzero;"/>
        <rect x="81.722" y="402.648" width="4.824" height="4.81" style="fill:rgb(77,111,114);fill-rule:nonzero;"/>
        <rect x="81.722" y="397.824" width="4.824" height="4.824" style="fill:rgb(77,111,114);fill-rule:nonzero;"/>
    </g>
</svg>
