<svg xmlns="http://www.w3.org/2000/svg" viewBox="0 0 256 135">
  <ellipse cx="128" cy="67.3" rx="128" ry="67.3" fill="#8993be"/>
  <ellipse cx="128" cy="67.3" rx="123" ry="62.3" fill="#777bb3"/>
  <path fill="#fff" d="M152.9 33.4h-15.6l-5.4 27.8h13.5c7.2 0 12.4-1.3 15.6-4 3.3-2.7 5.6-7.2 6.9-13.4.5-2.8.4-5-.4-6.6-.8-1.6-2.2-2.7-4.2-3.3-2-.6-5.5-.5-10.4-.5zm-9.6 34.8h-19.6l-9.3 47.4H101l17.1-87.3h38.1c9.7 0 16.8 2 21.2 6.1 4.4 4 5.7 10 4 17.8-1.4 6.4-3.9 12-7.7 16.7-3.8 4.7-8.4 8.3-14 10.7-5.5 2.5-12.7 3.7-21.4 3.5l-5-.1zm-99.5-34.8H28.2l-5.4 27.8H36.3c7.2 0 12.4-1.3 15.6-4 3.3-2.7 5.6-7.2 6.9-13.4.5-2.8.4-5-.4-6.6-.8-1.6-2.2-2.7-4.2-3.3-2-.6-5.5-.5-10.4-.5zm-9.6 34.8H14.6l-9.3 47.4H-8.1l17.1-87.3h38.1c9.7 0 16.8 2 21.2 6.1 4.4 4 5.7 10 4 17.8-1.4 6.4-3.9 12-7.7 16.7-3.8 4.7-8.4 8.3-14 10.7-5.5 2.5-12.7 3.7-21.4 3.5l-5-.1zm130.4-9.8h15.9l5.3-27.1h15.4l-5.4 27.1h16.2l-3.1 15.8h-16.2l-4.7 24h16l-3.1 15.8h-44.2l3.1-15.8h13l4.7-24h-16.1z"/>
</svg>
