<svg xmlns="http://www.w3.org/2000/svg" viewBox="0 0 128 128">
  <path fill="#336791" d="M93.809 92.112c.785-6.533.55-7.492 5.416-6.433l1.235.108c3.742.17 8.637-.602 11.513-1.938 6.191-2.873 9.861-7.668 3.758-6.409-13.924 2.873-14.881-1.842-14.881-1.842 14.703-21.815 20.849-49.508 15.543-56.287-14.47-18.489-39.517-9.746-39.936-9.52l-.134.025c-2.751-.571-5.83-.912-9.289-.968-6.301-.104-11.082 1.652-14.535 4.41 0 0-44.19-18.2-42.153 22.94 .433 8.747 12.401 66.311 26.691 48.922 5.224-6.353 10.268-11.728 10.268-11.728 2.506 1.666 5.506 2.491 8.666 2.191l.244-.022c-.075.759-.041 1.497.1 2.373-3.782 4.227-2.671 4.967-10.228 6.528-7.651 1.578-3.158 4.389-.222 5.122 3.564.89 11.81 2.149 17.375-5.631l-.216.882c1.442 1.155 2.448 7.523 2.274 13.29-.174 5.766-.36 9.723.494 12.819.854 3.096 1.701 10.038 8.946 7.968 6.053-1.729 9.186-6.204 9.604-13.67.297-5.292.012-18.143.689-23.566z"/>
  <path fill="#fff" d="M62.68 107.991c-.015 3.029-.618 5.808-1.136 7.649-.168.597-.607.822-1.102.821-2.365 0-2.915-5.276-3.149-8.933-.224-3.5-.109-6.728.043-10.108.17-3.759.389-7.521.523-11.283.045-1.289.05-2.577.049-3.866 0-3.116-2.098-5.612-5.115-6.285-4.257-.949-8.164.48-11.603 2.837-.085.058-.214.049-.345.024-.115-.474-.225-.948-.33-1.423.1-.085.163-.152.27-.221 1.936-1.274 3.925-2.466 5.953-3.598.903-.504 1.823-.976 2.753-1.433 4.027-1.978 8.209-3.522 12.558-4.455.264-.057.535-.089.804-.134.026.022.041.049.071.063 1.27.609 1.851 1.775 1.9 3.273.125 3.787-.377 7.548-.673 11.321-.31 3.963-.58 7.929-.778 11.9-.19 3.789-.294 7.583-.393 11.375-.042 1.62-.074 3.24-.138 4.86-.013.326-.11.649-.162.971z"/>
</svg>
