<svg xmlns="http://www.w3.org/2000/svg" viewBox="0 0 400 400">
  <rect width="400" height="400" rx="20" fill="#3178c6"/>
  <path fill="#fff" d="M87.7 200.7V217h52v148h36.9V217h52v-16c0-9 0-16.3-.4-16.5 0-.3-31.7-.4-70.2-.4l-70 .3-.3 16.3zm239.3 53.5c7.8 3.7 17 8.6 20.6 10.7l6.5 4-3.7 5.3c-5 7.3-16 18-23.2 22.6-20.7 13.4-49.2 16.2-73 7-16.8-6.5-30.5-20-38.3-38-2-4.8-5.2-14.3-5.2-16 0-.4 1-1 2-1.3 1.3-.3 24-13.8 24.2-14 .2-.2 1.2 1.6 2.3 4 7.2 15 20.7 25.3 38.5 29.2 20 4.4 42-2.3 49.3-15 3.5-6 3.7-15.4.5-22-3.6-7.4-11-12-33-21.5-25.3-10.7-37-18-44.2-28.2-8.7-12.4-10.4-33-.4-48 4.6-7 14.4-14.7 23.2-18.3 11-4.4 30.7-5.3 44.7-2 9.4 2.2 22 9 28 15l-10 14.6-10 14.6-4.8-3.6c-13.3-10.5-32.7-12.5-44-4.7-6.8 4.7-8.6 15-.4 21 2 1.4 12.7 6.6 24.3 11.6 27.6 11.6 39 19.6 47.2 32.6 9.4 15.2 10.4 40 2.3 56.3-8.8 17.5-29 30.3-52.8 33.6-13.5 2-36.6 1-49-2.3-16-4.2-32-15-40-26.6-1.5-2.2-2.8-4.2-2.8-4.5s10.2-7 22.7-14.8z"/>
</svg>
